<svg version="1.1" xmlns="http://www.w3.org/2000/svg" xmlns:xlink="http://www.w3.org/1999/xlink" width="100" height="100" viewBox="0,0,100,100"><g transform="translate(-305.50001,-150.00001)"><g data-paper-data="{&quot;isPaintingLayer&quot;:true}" fill-rule="nonzero" stroke-linecap="butt" stroke-linejoin="miter" stroke-miterlimit="10" stroke-dasharray="" stroke-dashoffset="0" style="mix-blend-mode: normal"><path d="" fill="#e682ff" stroke="#000000" stroke-width="0"/><path d="" fill="#e682ff" stroke="#000000" stroke-width="0"/><path d="" fill="#9375ff" stroke="#000000" stroke-width="0"/><path d="" fill="#9375ff" stroke="#000000" stroke-width="0"/><path d="" fill="#9375ff" stroke="#000000" stroke-width="0"/><path d="" fill="#9375ff" stroke="#000000" stroke-width="0"/><path d="" fill="#9375ff" stroke="#000000" stroke-width="0"/><path d="M305.50001,200.00002c0,-27.61424 22.38576,-50 50,-50c27.61424,0 50,22.38576 50,50c0,27.61424 -22.38576,50 -50,50c-27.61424,0 -50,-22.38576 -50,-50z" fill="#ccbc68" stroke="none" stroke-width="0"/><path d="M379.17569,200.00002c0,1.66618 -1.27849,2.95946 -2.95946,2.95946h-2.95946v17.75676c0,1.6277 -1.33176,2.95946 -2.95946,2.95946h-8.87838l-0.00124,-17.72363l-11.84963,0.00883l0.01303,17.7148h-8.87838c-1.6277,0 -2.95946,-1.33176 -2.95946,-2.95946v-17.75676h-2.95946c-1.68097,0 -2.95946,-1.29328 -2.95946,-2.95946c0,-1.29624 0.70435,-1.99764 1.6277,-2.95946l19.08851,-19.07372c0.80793,-0.76354 1.5478,-1.6425 2.95946,-1.6425c1.41166,0 2.15153,0.87896 2.95946,1.6425l5.91892,5.913v-1.63658c0,-1.6277 1.33176,-2.95946 2.95946,-2.95946h2.95946c1.6277,0 2.95946,1.33176 2.95946,2.95946v10.50904l4.29122,4.28826c0.92335,0.96182 1.6277,1.66322 1.6277,2.95946z" fill="#000000" stroke="none" stroke-width="1"/></g></g></svg>