<svg version="1.1" xmlns="http://www.w3.org/2000/svg" xmlns:xlink="http://www.w3.org/1999/xlink" width="35.11628" height="38.25396" viewBox="0,0,35.11628,38.25396"><g transform="translate(-337.94186,-182.44187)"><g data-paper-data="{&quot;isPaintingLayer&quot;:true}" fill-rule="nonzero" stroke-linecap="butt" stroke-linejoin="miter" stroke-miterlimit="10" stroke-dasharray="" stroke-dashoffset="0" style="mix-blend-mode: normal"><path d="M337.94186,209.84025c0,-3.78958 0,-13.01278 0,-19.68254c0,-4.4767 3.23645,-7.71584 7.55836,-7.71584c6.75088,0 16.15015,0 20,0c3.30685,0 7.55792,4.30285 7.55792,7.63648c0,3.81959 0,13.05024 0,19.76191c0,4.40033 -4.19889,7.71789 -7.47856,7.71789c-3.89481,0 -13.52461,0 -20.31746,0c-4.20323,0 -7.32026,-4.35662 -7.32026,-7.71789z" fill="#82bbff" stroke="#ffffff" stroke-width="0"/><text transform="translate(344.06001,206) scale(0.5,0.5)" font-size="40" xml:space="preserve" fill-opacity="0.65882" fill="#000000" fill-rule="nonzero" stroke="none" stroke-width="1" stroke-linecap="butt" stroke-linejoin="miter" stroke-miterlimit="10" stroke-dasharray="" stroke-dashoffset="0" font-family="Sans Serif" font-weight="normal" text-anchor="start" style="mix-blend-mode: normal"><tspan x="0" dy="0">33</tspan></text><g fill-opacity="0.65882" fill="#000000" stroke-width="0.5"><path d="M358.65877,220.39422c-0.66548,0.4019 -2.6207,-1.67548 -2.6207,-1.67548c0,0 -2.27831,1.7188 -2.86656,1.20988c-0.58876,-0.50889 0.78346,-3.01113 0.78346,-3.01113c0,0 -2.33834,-1.6358 -2.03614,-2.35242c0.3022,-0.71717 3.1056,-0.1853 3.1056,-0.1853c0,0 0.83252,-2.72928 1.60761,-2.66403c0.77614,0.06576 1.1368,2.89682 1.1368,2.89682c0,0 2.85299,-0.05167 3.02941,0.70619c0.17798,0.75736 -2.40306,1.97559 -2.40306,1.97559c0,0 0.93063,2.69797 0.26358,3.09987z" stroke-opacity="0.65882" stroke="#000000"/><path d="M368.5794,220.39422c-0.66548,0.4019 -2.6207,-1.67548 -2.6207,-1.67548c0,0 -2.27831,1.7188 -2.86656,1.20988c-0.58876,-0.50889 0.78346,-3.01113 0.78346,-3.01113c0,0 -2.33834,-1.6358 -2.03614,-2.35242c0.3022,-0.71717 3.1056,-0.1853 3.1056,-0.1853c0,0 0.83252,-2.72928 1.60761,-2.66403c0.77614,0.06576 1.1368,2.89682 1.1368,2.89682c0,0 2.85299,-0.05167 3.02941,0.70619c0.17798,0.75736 -2.40306,1.97559 -2.40306,1.97559c0,0 0.93063,2.69797 0.26358,3.09987z" stroke-opacity="0.65882" stroke="#000000"/><path d="M348.18257,220.39422c-0.66548,0.4019 -2.6207,-1.67548 -2.6207,-1.67548c0,0 -2.27831,1.7188 -2.86656,1.20988c-0.58876,-0.50889 0.78346,-3.01113 0.78346,-3.01113c0,0 -2.33834,-1.6358 -2.03614,-2.35242c0.3022,-0.71717 3.1056,-0.1853 3.1056,-0.1853c0,0 0.83252,-2.72928 1.60761,-2.66403c0.77614,0.06576 1.1368,2.89682 1.1368,2.89682c0,0 2.85299,-0.05167 3.02941,0.70619c0.17798,0.75736 -2.40306,1.97559 -2.40306,1.97559c0,0 0.93063,2.69797 0.26358,3.09987z" stroke="#000000"/></g></g></g></svg>