<svg version="1.1" xmlns="http://www.w3.org/2000/svg" xmlns:xlink="http://www.w3.org/1999/xlink" width="24" height="24" viewBox="0,0,24,24"><defs><linearGradient x1="355.5" y1="188" x2="355.5" y2="212" gradientUnits="userSpaceOnUse" id="color-1"><stop offset="0" stop-color="#39ebfc"/><stop offset="1" stop-color="#00bb21"/></linearGradient></defs><g transform="translate(-343.5,-188)"><g data-paper-data="{&quot;isPaintingLayer&quot;:true}" fill-rule="nonzero" stroke="none" stroke-width="0" stroke-linecap="butt" stroke-linejoin="miter" stroke-miterlimit="10" stroke-dasharray="" stroke-dashoffset="0" style="mix-blend-mode: normal"><path d="" fill="#f3fc3a"/><path d="M343.5,200c0,-6.62742 5.37258,-12 12,-12c0.38313,0 0.76207,0.01796 1.13602,0.05307c0.00608,0.00678 0.01252,0.01322 0.0193,0.0193c0.04425,0.0397 0.10275,0.06385 0.16688,0.06385c0.00379,0 0.00755,-0.00008 0.0113,-0.00025c0.38998,0.10626 1.27519,0.2496 1.97781,0.32672c0.3209,0.09193 0.6363,0.19689 0.94559,0.31426c0.83308,0.45937 1.99106,1.07673 2.8882,1.58117c0.04183,0.03105 0.08346,0.06237 0.12487,0.09395c0.15499,0.23838 0.79796,0.85884 1.24514,1.09257c0.05474,0.05513 0.10896,0.11079 0.16263,0.16696c0.44794,0.73899 1.39795,2.20169 1.90213,2.6207c0.90614,1.68795 1.42014,3.6178 1.42014,5.6677c0,6.62742 -5.37258,12 -12,12c-6.62742,0 -12,-5.37258 -12,-12z" fill="url(#color-1)"/><path d="" fill="#f3fc3a"/><path d="" fill="#f3fc3a"/><path d="" fill="#f3fc3a"/><path d="" fill="#f3fc3a"/><path d="" fill="#f3fc3a"/><path d="M355.375,192.0625c0,-1.51595 0.60643,-2.89027 1.58992,-3.89359c0.54805,0.12798 1.64765,0.29047 2.30487,0.33599c0.83546,0.47515 2.38069,1.29071 3.47937,1.91189c0.11224,0.21835 0.88479,0.96962 1.35328,1.16951c0.39595,0.66546 1.38644,2.2136 1.93226,2.70678c-0.85963,1.96159 -2.81839,3.33191 -5.09721,3.33191c-3.07209,0 -5.5625,-2.49042 -5.5625,-5.5625z" fill="#f3fc3a"/></g></g></svg>