<svg version="1.1" xmlns="http://www.w3.org/2000/svg" xmlns:xlink="http://www.w3.org/1999/xlink" width="14.50102" height="14.76957" viewBox="0,0,14.50102,14.76957"><g transform="translate(-348.35749,-193.30611)"><g data-paper-data="{&quot;isPaintingLayer&quot;:true}" fill-rule="nonzero" stroke="none" stroke-width="1" stroke-linecap="butt" stroke-linejoin="miter" stroke-miterlimit="10" stroke-dasharray="" stroke-dashoffset="0" style="mix-blend-mode: normal"><g><path d="M362.12828,201.32279c0,3.38589 -2.91927,6.13151 -6.52098,6.13151c-3.60171,0 -6.52075,-2.74446 -6.52075,-6.13151c0,-3.38589 2.9188,-4.95868 6.52075,-4.95868c3.60148,-0.00023 6.52098,1.57303 6.52098,4.95868z" fill="#ec1c2c"/><g fill="#231f20"><path d="M362.85851,201.25729c0,3.76557 -3.24604,6.81839 -7.25074,6.81839c-4.004,0 -7.25028,-3.05282 -7.25028,-6.81839c0,-3.31853 2.52211,-4.81254 5.86161,-5.12113c0,0 1.05537,-0.13518 2.12938,-0.04405c3.65555,0.17015 6.51003,1.63549 6.51003,5.16518zM361.75233,201.35728c0,-2.93722 -2.33239,-4.4247 -5.34885,-4.64286c0,0 -1.91285,0.0268 -1.97089,0.03356c-2.8307,0.31255 -4.96777,1.79701 -4.96777,4.60883c0,3.18987 2.74982,5.77677 6.14317,5.77677c3.39311,0 6.14294,-2.58644 6.14433,-5.77631z"/><path d="M357.69449,198.21426c-0.83161,0.04219 -1.62826,0.06316 -2.46151,0.15663c-0.55635,0.06246 -1.09242,0.06736 -1.5045,-0.35288c-0.0895,-0.09206 0.0275,-0.25079 0.13938,-0.18017c0.2755,0.17271 0.55309,0.24263 0.83231,0.25615c0.01818,0.01492 0.99616,-0.11421 1.44274,-0.25592c0.53887,-0.14684 1.07821,-0.26804 1.61498,-0.09067c0.25662,0.08484 0.20697,0.45263 -0.0634,0.46685z"/></g><path d="M351.28375,201.28992c0,0.79968 0.43119,1.44786 -0.01958,1.44786c-0.45077,0 -0.81576,-0.64818 -0.81576,-1.44786c0,-0.79945 0.365,-1.44763 0.81576,-1.44763c0.45077,0 0.01958,0.64842 0.01958,1.44763z" fill="#ffffff"/></g><g><path d="M362.12828,201.32279c0,3.38589 -2.91927,6.13151 -6.52098,6.13151c-3.60171,0 -6.52075,-2.74446 -6.52075,-6.13151c0,-3.38589 2.9188,-4.95868 6.52075,-4.95868c3.60148,-0.00023 6.52098,1.57303 6.52098,4.95868z" fill="#ec1c2c"/><g fill="#231f20"><path d="M362.85851,201.25729c0,3.76557 -3.24604,6.81839 -7.25074,6.81839c-4.004,0 -7.25028,-3.05282 -7.25028,-6.81839c0,-3.31853 2.52211,-4.81254 5.86161,-5.12113c0,0 1.05537,-0.13518 2.12938,-0.04405c3.65555,0.17015 6.51003,1.63549 6.51003,5.16518zM361.75233,201.35728c0,-2.93722 -2.33239,-4.4247 -5.34885,-4.64286c0,0 -1.91285,0.0268 -1.97089,0.03356c-2.8307,0.31255 -4.96777,1.79701 -4.96777,4.60883c0,3.18987 2.74982,5.77677 6.14317,5.77677c3.39311,0 6.14294,-2.58644 6.14433,-5.77631z"/><path d="M357.69449,198.21426c-0.83161,0.04219 -1.62826,0.06316 -2.46151,0.15663c-0.55635,0.06246 -1.09242,0.06736 -1.5045,-0.35288c-0.0895,-0.09206 0.0275,-0.25079 0.13938,-0.18017c0.2755,0.17271 0.55309,0.24263 0.83231,0.25615c0.01818,0.01492 0.99616,-0.11421 1.44274,-0.25592c0.53887,-0.14684 1.07821,-0.26804 1.61498,-0.09067c0.25662,0.08484 0.20697,0.45263 -0.0634,0.46685z"/></g><path d="M351.28375,201.28992c0,0.79968 0.43119,1.44786 -0.01958,1.44786c-0.45077,0 -0.81576,-0.64818 -0.81576,-1.44786c0,-0.79945 0.365,-1.44763 0.81576,-1.44763c0.45077,0 0.01958,0.64842 0.01958,1.44763z" fill="#ffffff"/></g><g><path d="M353.97834,194.39672c0.23797,-0.14218 0.47524,-0.28482 0.71298,-0.42723c0.17108,0.26291 0.34309,0.51953 0.48107,0.81157c0.50391,1.06376 0.39297,2.18741 0.37851,3.31247c-0.0874,0.02074 -0.22771,0.03566 -0.31419,0.05104c0.06013,-1.43295 -0.28086,-2.74656 -1.25837,-3.74785z" fill="#99661d"/><path d="M356.1182,197.60197c0,0 -0.05361,0.43725 -0.0585,0.51976c0,0 -0.87893,0.26198 -1.22365,0.13099l-0.01072,-0.37502c0.00699,-0.74934 -0.22608,-1.55415 -0.36406,-1.8061c-0.06596,-0.12027 -0.33167,-0.80784 -1.14207,-1.52828c-0.13891,-0.12283 -0.09206,-0.35311 0.0564,-0.44238c0.42117,-0.25265 0.84117,-0.50531 1.26187,-0.75796c0.13518,-0.08088 0.29484,-0.02051 0.38644,0.10139c1.28844,1.71497 1.13368,3.98023 1.09429,4.1576zM355.52712,197.76839c0.0261,-1.03532 0.11421,-1.99746 -0.35474,-2.98733c-0.13798,-0.29204 -0.30999,-0.54866 -0.48107,-0.81157c-0.23774,0.14241 -0.47501,0.28505 -0.71298,0.42723c0.92344,0.94582 1.30056,2.09045 1.28891,3.42225v0.2685l0.25848,-0.03286z" fill="#231f20"/></g></g></g></svg>