<svg version="1.1" xmlns="http://www.w3.org/2000/svg" xmlns:xlink="http://www.w3.org/1999/xlink" width="11.91165" height="7.31082" viewBox="0,0,11.91165,7.31082"><g transform="translate(-349.54893,-196.25327)"><g data-paper-data="{&quot;isPaintingLayer&quot;:true}" fill-rule="evenodd" stroke="none" stroke-width="1" stroke-linecap="butt" stroke-linejoin="miter" stroke-miterlimit="10" stroke-dasharray="" stroke-dashoffset="0" style="mix-blend-mode: normal"><path d="M350.42772,203.56377c-1.40188,0 -0.55325,-5.83517 3.02214,-5.74859c3.64191,0.08827 4.96416,5.74859 4.96416,5.74859z" fill="#ff3535"/><path d="M361.05486,201.22162c0,0 -7.2764,1.93754 -8.58245,2.12999c-1.74896,0.25772 -2.3286,-0.30464 -2.53972,-1.21531c-0.34924,-1.50636 0.86792,-1.55605 1.24092,-2.37907c0.37285,-0.82317 -0.50433,-2.16224 1.24092,-2.23138c1.45976,-0.05787 1.48198,-1.1795 2.19959,-1.26191c1.11299,-0.12778 1.35605,0.92888 2.17953,1.22333c0.7778,0.27809 1.18706,-0.4335 2.05761,-0.08364c0.74585,0.29985 0.77949,1.89356 1.76192,2.2249c1.60112,0.54014 0.44168,1.59309 0.44168,1.59309" fill="#59c059"/><path d="M351.60021,200.76001c-0.1588,-0.04815 -0.24954,-0.21775 -0.20124,-0.37655l0.09676,-0.31914c0.04815,-0.1588 0.2176,-0.24939 0.37655,-0.20124l0.84971,0.25757c0.15895,0.0483 0.24954,0.21775 0.20124,0.37671l-0.09676,0.31899c-0.04815,0.15895 -0.2176,0.24939 -0.37655,0.20124l-0.84971,-0.25757" fill="#e8511c"/><path d="M351.03085,200.53469c0.17593,0.04475 0.42748,0.23612 0.63273,0.28704c-0.53088,1.37503 -0.62656,2.69296 -1.28398,2.73926h-0.00309c-0.50464,-0.04167 -1.04941,-0.5139 -0.73458,-1.00002c0.18673,-0.28859 -0.1034,-0.64662 -0.02469,-0.97842c0.11266,-0.47841 0.60187,-0.5818 0.77162,-0.62964c0.18519,-0.05093 0.38118,-0.48458 0.64199,-0.41822" fill="#ff3535"/><path d="M352.35338,200.00993c-0.15587,0.28241 -0.28396,0.57254 -0.39198,0.85959l-0.14507,-0.04475l-0.13889,-0.04151c0.11266,-0.2872 0.24538,-0.57578 0.40587,-0.85496z" fill="#c6431a"/><path d="M351.96139,200.86958c-0.51081,1.34571 -0.61421,2.62352 -1.24849,2.68988c-0.07408,0 -0.11111,0 -0.23457,0.00463h-0.03086c-0.02315,0 -0.04475,-0.00154 -0.0679,-0.00309c0.65742,-0.0463 0.7531,-1.36423 1.28398,-2.73926c0.05556,0.01389 0.10648,0.01698 0.15278,0.00309z" fill="#ff3535"/><path d="M352.2408,198.99447c-0.14969,0.07176 -0.33103,0.00787 -0.40263,-0.14198l-0.02778,-0.05772c-0.07161,-0.14985 -0.00772,-0.33087 0.14198,-0.40263l0.41436,-0.19831c0.14985,-0.07176 0.33103,-0.00787 0.40263,0.14182l0.02778,0.05787c0.07161,0.14969 0.00772,0.33103 -0.14198,0.40263l-0.41436,0.19831" fill="#e8511c"/><path d="M356.44607,197.72137c-0.11266,0.00154 -0.2284,0.00772 -0.34723,0.01698c-2.07104,0.15895 -3.12816,1.15126 -3.74546,2.27166l-0.27007,-0.08179c0.62347,-1.08799 1.67905,-2.034 3.69916,-2.18987c0.23149,-0.01852 0.45217,-0.02315 0.6636,-0.01698" fill="#4ba04b"/><path d="M360.02039,200.05107c-0.08303,-0.14383 -0.03333,-0.32948 0.11065,-0.41251l0.14692,-0.08488c0.14383,-0.08303 0.32948,-0.03318 0.41251,0.1105l0.31374,0.54353c0.08303,0.14383 0.03333,0.32933 -0.11065,0.41251l-0.14692,0.08472c-0.14383,0.08303 -0.32948,0.03333 -0.41251,-0.1105l-0.31374,-0.54338" fill="#e8511c"/><path d="M356.46114,197.96844c-0.15664,0.05525 -0.32995,-0.02747 -0.38519,-0.18411l-0.05648,-0.16003c-0.0554,-0.15664 0.02732,-0.32995 0.18395,-0.38535l0.59168,-0.20911c0.15664,-0.05525 0.32995,0.02762 0.38519,0.18411l0.05664,0.16003c0.0554,0.15664 -0.02747,0.3301 -0.18411,0.38535l-0.59168,0.20911" fill="#e8511c"/><path d="M350.65917,203.56377c1.38892,0 0.34306,-5.43454 5.43994,-5.82575c4.0575,-0.31143 5.06185,3.13094 5.27281,4.93869c0.05509,0.47177 -0.30865,0.88706 -0.78335,0.88706z" fill="#ff3535"/><path d="M354.36088,197.58271c-0.04475,0 -0.0892,-0.01944 -0.11976,-0.05695c-0.05386,-0.06605 -0.04383,-0.16328 0.02222,-0.21698l0.8102,-0.65989c0.06621,-0.05355 0.16343,-0.04383 0.21713,0.02222c0.05386,0.06605 0.04383,0.16328 -0.02222,0.21713l-0.8102,0.65974c-0.0287,0.0233 -0.06312,0.03472 -0.09738,0.03472" fill="#ffbf00"/><path d="M359.62193,198.06573c-0.00957,0 -0.01914,-0.00077 -0.02886,-0.00278l-1.02672,-0.19429c-0.0838,-0.01574 -0.13874,-0.09661 -0.123,-0.18025c0.0159,-0.0838 0.09676,-0.13966 0.18025,-0.123l1.02688,0.19445c0.0838,0.01574 0.13874,0.09661 0.12284,0.18025c-0.01389,0.07408 -0.07871,0.12562 -0.15139,0.12562" fill="#ffbf00"/><path d="M350.85143,201.23383c-0.03426,0 -0.06883,-0.01127 -0.09753,-0.03488l-0.80974,-0.66051c-0.06605,-0.0537 -0.07593,-0.15093 -0.02191,-0.21698c0.05386,-0.0659 0.15093,-0.07608 0.21713,-0.02207l0.80974,0.66066c0.06605,0.0537 0.07593,0.15093 0.02191,0.21698c-0.0304,0.03735 -0.07485,0.05679 -0.1196,0.05679" fill="#ffbf00"/><path d="M359.55833,200.79302c-0.2517,0 -0.25217,-0.39121 0,-0.39121c0.25186,0 0.25217,0.39121 0,0.39121" fill="#efab00"/><path d="M357.55483,201.14295c-0.2517,0 -0.25217,-0.39121 0,-0.39121c0.25186,0 0.25217,0.39121 0,0.39121" fill="#efab00"/><path d="M357.31263,202.75371c-0.2517,0 -0.25217,-0.39121 0,-0.39121c0.25186,0 0.25232,0.39121 0,0.39121" fill="#efab00"/><path d="M353.99903,202.94933c-0.2517,0 -0.25217,-0.39121 0,-0.39121c0.2517,0 0.25217,0.39121 0,0.39121" fill="#efab00"/><path d="M354.38673,199.54786c-0.2517,0 -0.25217,-0.39121 0,-0.39121c0.2517,0 0.25217,0.39121 0,0.39121" fill="#efab00"/><path d="M356.46068,198.66141c-0.2517,0 -0.25217,-0.39137 0,-0.39137c0.2517,0 0.25217,0.39137 0,0.39137" fill="#efab00"/><path d="M355.444,201.37987c-0.2517,0 -0.25217,-0.39121 0,-0.39121c0.2517,0 0.25217,0.39121 0,0.39121" fill="#efab00"/><path d="M353.27841,201.53419c-0.2517,0 -0.25217,-0.39121 0,-0.39121c0.2517,0 0.25217,0.39121 0,0.39121" fill="#efab00"/><path d="M359.94037,202.38193c-0.2517,0 -0.25217,-0.39121 0,-0.39121c0.2517,0 0.25217,0.39121 0,0.39121" fill="#efab00"/><path d="M358.41401,199.35224c-0.25186,0 -0.25232,-0.39121 0,-0.39121c0.2517,0 0.25217,0.39121 0,0.39121" fill="#efab00"/><path d="M351.67745,200.78322l0.13889,0.04167c-0.0463,0.01373 -0.09722,0.0108 -0.15278,-0.00309c0.00463,-0.01235 0.00926,-0.02469 0.01389,-0.03858" fill="#4ba04b"/></g></g></svg>