<svg version="1.1" xmlns="http://www.w3.org/2000/svg" xmlns:xlink="http://www.w3.org/1999/xlink" width="24" height="24" viewBox="0,0,24,24"><g transform="translate(-343.5,-188)"><g data-paper-data="{&quot;isPaintingLayer&quot;:true}" fill-rule="nonzero" stroke-linejoin="miter" stroke-miterlimit="10" stroke-dasharray="" stroke-dashoffset="0" style="mix-blend-mode: normal"><path d="M343.5,200c0,-6.62742 5.37258,-12 12,-12c6.62742,0 12,5.37258 12,12c0,6.62742 -5.37258,12 -12,12c-6.62742,0 -12,-5.37258 -12,-12z" fill="#714dff" stroke="none" stroke-width="0" stroke-linecap="butt"/><path d="M349.21388,193.6233c0,-1.38071 1.11929,-2.5 2.5,-2.5c1.38071,0 2.5,1.11929 2.5,2.5c0,1.38071 -1.11929,2.5 -2.5,2.5c-1.38071,0 -2.5,-1.11929 -2.5,-2.5z" fill="#ffab4d" stroke="none" stroke-width="0.5" stroke-linecap="butt"/><path d="M357.13697,192.56689c0,-1.38071 1.11929,-2.5 2.5,-2.5c1.38071,0 2.5,1.11929 2.5,2.5c0,1.38071 -1.11929,2.5 -2.5,2.5c-1.38071,0 -2.5,-1.11929 -2.5,-2.5z" fill="#ffab4d" stroke="none" stroke-width="0.5" stroke-linecap="butt"/><path d="M361.67954,199.32793c0,-1.38071 1.11929,-2.5 2.5,-2.5c1.38071,0 2.5,1.11929 2.5,2.5c0,1.38071 -1.11929,2.5 -2.5,2.5c-1.38071,0 -2.5,-1.11929 -2.5,-2.5z" fill="#ffab4d" stroke="none" stroke-width="0.5" stroke-linecap="butt"/><path d="M357.55954,206.72281c0,-1.38071 1.11929,-2.5 2.5,-2.5c1.38071,0 2.5,1.11929 2.5,2.5c0,1.38071 -1.11929,2.5 -2.5,2.5c-1.38071,0 -2.5,-1.11929 -2.5,-2.5z" fill="#ffab4d" stroke="none" stroke-width="0.5" stroke-linecap="butt"/><path d="M348.05182,204.92691c0,-1.38071 1.11929,-2.5 2.5,-2.5c1.38071,0 2.5,1.11929 2.5,2.5c0,1.38071 -1.11929,2.5 -2.5,2.5c-1.38071,0 -2.5,-1.11929 -2.5,-2.5z" fill="#ffab4d" stroke="none" stroke-width="0.5" stroke-linecap="butt"/><path d="M345.83336,199.22229c0,-1.38071 1.11929,-2.5 2.5,-2.5c1.38071,0 2.5,1.11929 2.5,2.5c0,1.38071 -1.11929,2.5 -2.5,2.5c-1.38071,0 -2.5,-1.11929 -2.5,-2.5z" fill="#ffab4d" stroke="none" stroke-width="0.5" stroke-linecap="butt"/><path d="M353.01696,199.32793c0,-1.38071 1.11929,-2.5 2.5,-2.5c1.38071,0 2.5,1.11929 2.5,2.5c0,1.38071 -1.11929,2.5 -2.5,2.5c-1.38071,0 -2.5,-1.11929 -2.5,-2.5z" fill="#ffab4d" stroke="none" stroke-width="0.5" stroke-linecap="butt"/><path d="M343.5,200c0,-6.62742 5.37258,-12 12,-12c6.62742,0 12,5.37258 12,12c0,6.62742 -5.37258,12 -12,12c-6.62742,0 -12,-5.37258 -12,-12z" fill="#ff4d4d" stroke="none" stroke-width="0" stroke-linecap="butt"/><g stroke-width="0.5"><path d="M349.375,202.00758c0,-3.38274 2.74226,-6.125 6.125,-6.125c3.38274,0 6.125,2.74226 6.125,6.125c0,3.38274 -2.74226,6.125 -6.125,6.125c-3.38274,0 -6.125,-2.74226 -6.125,-6.125z" fill="#ffab4d" stroke="none" stroke-linecap="butt"/><path d="M355.95852,199.23734c0,0 0.03589,-1.90032 0.89636,-4.48171c0.86046,-2.58139 2.48984,-2.88821 2.48984,-2.88821" fill="none" stroke="#000000" stroke-linecap="round"/></g></g></g></svg>