<svg version="1.1" xmlns="http://www.w3.org/2000/svg" xmlns:xlink="http://www.w3.org/1999/xlink" width="29.80321" height="9.23123" viewBox="0,0,29.80321,9.23123"><g transform="translate(-341.16566,-211.46458)"><g data-paper-data="{&quot;isPaintingLayer&quot;:true}" fill-rule="nonzero" stroke-linecap="butt" stroke-linejoin="miter" stroke-miterlimit="10" stroke-dasharray="" stroke-dashoffset="0" style="mix-blend-mode: normal"><g><path d="M358.65876,220.39421c-0.66548,0.4019 -2.6207,-1.67548 -2.6207,-1.67548c0,0 -2.27831,1.7188 -2.86656,1.20988c-0.58876,-0.50889 0.78346,-3.01113 0.78346,-3.01113c0,0 -2.33834,-1.6358 -2.03614,-2.35242c0.3022,-0.71717 3.1056,-0.1853 3.1056,-0.1853c0,0 0.83252,-2.72928 1.60761,-2.66403c0.77614,0.06576 1.1368,2.89682 1.1368,2.89682c0,0 2.85299,-0.05167 3.02941,0.70619c0.17798,0.75736 -2.40306,1.97559 -2.40306,1.97559c0,0 0.93063,2.69797 0.26358,3.09987z" fill="#ffff00" stroke="#000000" stroke-width="0.5"/><path d="M357.36276,218.41445c-0.33509,0.202 -1.31793,-0.84243 -1.31793,-0.84243c0,0 -1.14463,0.86382 -1.44006,0.60807c-0.29541,-0.25575 0.39355,-1.5126 0.39355,-1.5126c0,0 -1.17437,-0.82261 -1.02302,-1.18222c0.1519,-0.36015 1.5601,-0.09292 1.5601,-0.09292c0,0 0.41862,-1.37168 0.80851,-1.33827c0.38938,0.03287 0.56997,1.45519 0.56997,1.45519c0,0 1.43433,-0.02559 1.52304,0.35491c0.08979,0.38103 -1.20674,0.99275 -1.20674,0.99275c0,0 0.46662,1.35552 0.13257,1.55751z" fill="#ffffff" stroke="none" stroke-width="2.57572"/></g><g><path d="M368.57939,220.39421c-0.66548,0.4019 -2.6207,-1.67548 -2.6207,-1.67548c0,0 -2.27831,1.7188 -2.86656,1.20988c-0.58876,-0.50889 0.78346,-3.01113 0.78346,-3.01113c0,0 -2.33834,-1.6358 -2.03614,-2.35242c0.3022,-0.71717 3.1056,-0.1853 3.1056,-0.1853c0,0 0.83252,-2.72928 1.60761,-2.66403c0.77614,0.06576 1.1368,2.89682 1.1368,2.89682c0,0 2.85299,-0.05167 3.02941,0.70619c0.17798,0.75736 -2.40306,1.97559 -2.40306,1.97559c0,0 0.93063,2.69797 0.26358,3.09987z" fill="#ffff00" stroke="#000000" stroke-width="0.5"/><path d="M367.28339,218.41445c-0.33509,0.202 -1.31793,-0.84243 -1.31793,-0.84243c0,0 -1.14463,0.86382 -1.44006,0.60807c-0.29541,-0.25575 0.39355,-1.5126 0.39355,-1.5126c0,0 -1.17437,-0.82261 -1.02302,-1.18222c0.1519,-0.36015 1.5601,-0.09292 1.5601,-0.09292c0,0 0.41862,-1.37168 0.80851,-1.33827c0.38938,0.03287 0.56997,1.45519 0.56997,1.45519c0,0 1.43433,-0.02559 1.52304,0.35491c0.08979,0.38103 -1.20674,0.99275 -1.20674,0.99275c0,0 0.46662,1.35552 0.13257,1.55751z" fill="#ffffff" stroke="none" stroke-width="2.57572"/></g><g><path d="M348.18256,220.39421c-0.66548,0.4019 -2.6207,-1.67548 -2.6207,-1.67548c0,0 -2.27831,1.7188 -2.86656,1.20988c-0.58876,-0.50889 0.78346,-3.01113 0.78346,-3.01113c0,0 -2.33834,-1.6358 -2.03614,-2.35242c0.3022,-0.71717 3.1056,-0.1853 3.1056,-0.1853c0,0 0.83252,-2.72928 1.60761,-2.66403c0.77614,0.06576 1.1368,2.89682 1.1368,2.89682c0,0 2.85299,-0.05167 3.02941,0.70619c0.17798,0.75736 -2.40306,1.97559 -2.40306,1.97559c0,0 0.93063,2.69797 0.26358,3.09987z" fill="#ffff00" stroke="#000000" stroke-width="0.5"/><path d="M346.88656,218.41445c-0.33509,0.202 -1.31793,-0.84243 -1.31793,-0.84243c0,0 -1.14463,0.86382 -1.44006,0.60807c-0.29541,-0.25575 0.39355,-1.5126 0.39355,-1.5126c0,0 -1.17437,-0.82261 -1.02302,-1.18222c0.1519,-0.36015 1.5601,-0.09292 1.5601,-0.09292c0,0 0.41862,-1.37168 0.80851,-1.33827c0.38938,0.03287 0.56997,1.45519 0.56997,1.45519c0,0 1.43433,-0.02559 1.52304,0.35491c0.08979,0.38103 -1.20674,0.99275 -1.20674,0.99275c0,0 0.46662,1.35552 0.13257,1.55751z" fill="#ffffff" stroke="none" stroke-width="2.57572"/></g></g></g></svg>