<svg version="1.1" xmlns="http://www.w3.org/2000/svg" xmlns:xlink="http://www.w3.org/1999/xlink" width="992.49249" height="530.03003" viewBox="0,0,992.49249,530.03003"><g transform="translate(132.48649,59.25676)"><g data-paper-data="{&quot;isPaintingLayer&quot;:true}" fill-rule="nonzero" stroke-linecap="butt" stroke-linejoin="miter" stroke-miterlimit="10" stroke-dasharray="" stroke-dashoffset="0" style="mix-blend-mode: normal"><path d="M-6.5,405v-415h721v415zM373.22442,195.99665l0.1118,-0.50312l0.0559,-0.08385l-0.01863,-0.08385l0.01863,-0.08385l-0.0559,-0.08385l-0.00378,-0.01702v-2.2818l0.05034,-0.20135v-0.05034l0.05034,-0.20135v-0.0418l0.00935,-0.04206l-0.00935,-0.01402v-0.75786l0.05034,-0.20135v-0.20135l0.05034,-0.20135v-0.0418l0.00935,-0.04206l-0.00935,-0.01402v-0.60685l0.05034,-0.20135v-0.90887l0.00935,-0.01402l-0.00935,-0.04206v-0.0418l-0.08359,-0.33437l-0.02671,-0.1202l-0.01701,-0.22112l-0.05034,-0.15101l-0.04781,-0.07513l-0.01238,-0.04952l-0.006,-0.00343l-0.0152,-0.06841l-0.05034,-0.10067l-0.06169,-0.07197l-0.03188,-0.08926l-0.02281,-0.03421l-0.00359,-0.01078l-0.10756,-0.16903l-0.06739,-0.18868l-0.04887,-0.07331l-0.05005,-0.1001l0.00158,-0.02294l-0.26102,-0.28713l-0.25253,-0.29462l-0.02296,-0.00128l-0.0161,-0.01073l-0.16229,-0.18934l-0.02296,-0.00128l-0.13453,-0.08969l-0.04109,-0.01468l-0.03774,-0.02264l-0.18308,-0.15692l-0.17916,-0.08958l-0.06231,-0.06854l-0.30202,-0.20135l-0.08131,-0.02904l-0.01936,-0.0213l-0.04555,-0.03037l-0.015,-0.01286l-0.01715,-0.00857l-0.22432,-0.14955l-0.08926,-0.03188l-0.07197,-0.06169l-0.16108,-0.08054l-0.14094,-0.12081l-0.30202,-0.15101l-0.1037,-0.02304l-0.08096,-0.09445l-0.05914,-0.00329l-0.02939,-0.05143l-0.24315,-0.06079l-0.03738,-0.01869l-0.33645,-0.07477l-0.09189,-0.02297l-0.02969,-0.01583l-0.8054,-0.20135h-0.18466l-0.17914,-0.04479h-1.15776c-0.05472,0 -0.10876,0.00293 -0.16197,0.00864c-0.24059,-0.16427 -0.53147,-0.26033 -0.84478,-0.26033c-0.17997,0 -0.35254,0.03169 -0.51242,0.08981c-0.11025,-0.02582 -0.22519,-0.03947 -0.34331,-0.03947c-0.23756,0 -0.46222,0.05522 -0.66184,0.15353c-0.19839,-0.0968 -0.42132,-0.15112 -0.65692,-0.15112c-0.3105,0 -0.59896,0.09434 -0.83828,0.25592c-0.22343,-0.13215 -0.48412,-0.20799 -0.76251,-0.20799c-0.30188,0 -0.58292,0.08917 -0.81824,0.24262c-2.89509,-0.2766 -5.91106,-0.14343 -8.22526,1.61039c-0.43458,0.32935 -0.68832,0.7964 -0.7748,1.26864c-0.14105,0.02119 -0.29278,0.16033 -0.44603,0.38906c-0.12253,0.14717 -0.21743,0.31815 -0.27672,0.50499c-0.58121,1.25036 -1.10352,3.56449 -1.05167,5.34872c-0.06388,0.07202 -0.12094,0.15024 -0.17016,0.23363c-0.89083,0.50904 -0.58796,1.5126 0.04547,2.36564c-0.0007,0.01884 -0.00106,0.03778 -0.00106,0.05679c0,0.14285 0.01997,0.28103 0.05726,0.41191c-0.13276,1.09908 0.99847,1.51044 0.99847,1.51044c1.11504,0.39605 2.29023,0.64797 3.46868,0.75483l1.61323,-0.1362c0,0 0.55022,-0.05502 0.94911,-0.43232c3.3742,0.19697 6.96001,0.06609 9.58823,-0.00461c1.25787,-0.03384 5.26897,0.5934 6.11703,-0.91316c0.35089,-0.62334 0.38138,-1.07837 0.20084,-1.40844z" fill="#e682ff" stroke="#000000" stroke-width="0"/><path d="M370.33244,194.02718h-0.2082c0.07112,-0.02011 0.14062,-0.04054 0.2082,-0.06119z" fill="#e682ff" stroke="#000000" stroke-width="0"/><path d="" fill="#e682ff" stroke="#000000" stroke-width="0"/><path d="" fill="#e682ff" stroke="#000000" stroke-width="0"/><text transform="translate(52.29278,225.58352) scale(2.13196,2.13196)" font-size="40" xml:space="preserve" fill="#9375ff" fill-rule="nonzero" stroke="none" stroke-width="1" stroke-linecap="butt" stroke-linejoin="miter" stroke-miterlimit="10" stroke-dasharray="" stroke-dashoffset="0" font-family="Sans Serif" font-weight="normal" text-anchor="start" style="mix-blend-mode: normal"><tspan x="0" dy="0">Nächstes Level</tspan></text><path d="" fill="#9375ff" stroke="#000000" stroke-width="0"/><path d="M350.68955,184.51043h6.34049c-1.50163,0.19861 -2.92854,0.67293 -4.15754,1.60432c-0.43458,0.32935 -0.68832,0.7964 -0.7748,1.26864c-0.14105,0.02119 -0.29278,0.16033 -0.44603,0.38906c-0.12253,0.14717 -0.21743,0.31815 -0.27672,0.50499c-0.25407,0.54658 -0.49689,1.29644 -0.6854,2.11645z" fill="#9375ff" stroke="#000000" stroke-width="0"/><path d="" fill="#9375ff" stroke="#000000" stroke-width="0"/><path d="" fill="#9375ff" stroke="#000000" stroke-width="0"/><path d="M370.33244,194.02718h-0.2082c0.07112,-0.02011 0.14062,-0.04054 0.2082,-0.06119z" fill="#9375ff" stroke="#000000" stroke-width="0"/><path d="" fill="#9375ff" stroke="#000000" stroke-width="0"/><path d="M372.98685,184.51043v2.85507l-0.007,-0.01961l-0.04887,-0.07331l-0.05005,-0.1001l0.00158,-0.02294l-0.26102,-0.28713l-0.25253,-0.29462l-0.02296,-0.00128l-0.0161,-0.01073l-0.16229,-0.18934l-0.02296,-0.00128l-0.13453,-0.08969l-0.04109,-0.01468l-0.03774,-0.02264l-0.18308,-0.15692l-0.17916,-0.08958l-0.06231,-0.06854l-0.30202,-0.20135l-0.08131,-0.02904l-0.01936,-0.0213l-0.04555,-0.03037l-0.015,-0.01286l-0.01715,-0.00857l-0.22432,-0.14955l-0.08926,-0.03188l-0.07197,-0.06169l-0.16108,-0.08054l-0.14094,-0.12081l-0.30202,-0.15101l-0.1037,-0.02304l-0.08096,-0.09445l-0.05914,-0.00329l-0.02939,-0.05143l-0.24315,-0.06079l-0.03738,-0.01869l-0.33645,-0.07477l-0.09189,-0.02297l-0.02969,-0.01583l-0.59387,-0.14847z" fill="#9375ff" stroke="#000000" stroke-width="0"/><path d="" fill="#9375ff" stroke="#000000" stroke-width="0"/><path d="M-132.48649,470.77327v-530.03003h992.49249v530.03003z" fill="none" stroke="#ff0000" stroke-width="0"/></g></g></svg>