<svg version="1.1" xmlns="http://www.w3.org/2000/svg" xmlns:xlink="http://www.w3.org/1999/xlink" width="100" height="100" viewBox="0,0,100,100"><g transform="translate(-305.50001,-150.00004)"><g data-paper-data="{&quot;isPaintingLayer&quot;:true}" fill-rule="nonzero" stroke-linecap="butt" stroke-linejoin="miter" stroke-miterlimit="10" stroke-dasharray="" stroke-dashoffset="0" style="mix-blend-mode: normal"><path d="" fill="#e682ff" stroke="#000000" stroke-width="0"/><path d="" fill="#e682ff" stroke="#000000" stroke-width="0"/><path d="" fill="#9375ff" stroke="#000000" stroke-width="0"/><path d="" fill="#9375ff" stroke="#000000" stroke-width="0"/><path d="" fill="#9375ff" stroke="#000000" stroke-width="0"/><path d="" fill="#9375ff" stroke="#000000" stroke-width="0"/><path d="" fill="#9375ff" stroke="#000000" stroke-width="0"/><path d="M305.50001,200.00005c0,-27.61424 22.38576,-50 50,-50c27.61424,0 50,22.38576 50,50c0,27.61424 -22.38576,50 -50,50c-27.61424,0 -50,-22.38576 -50,-50z" fill="#ccbc68" stroke="none" stroke-width="0"/><path d="M392.29727,200.01957c-0.00009,-3.36473 -0.44354,-6.6056 -1.33025,-9.72261c-0.88692,-3.11692 -2.12589,-6.04479 -3.7169,-8.7836c-1.59118,-2.7387 -3.50178,-5.22969 -5.73183,-7.47291c-2.23021,-2.24312 -4.70813,-4.1668 -7.43379,-5.77098c-2.72579,-1.60407 -5.65366,-2.84956 -8.78363,-3.73646c-3.13008,-0.88678 -6.37747,-1.33019 -9.74217,-1.33025c-3.36482,0.00007 -6.60569,0.44349 -9.72261,1.33025c-3.11701,0.88689 -6.03184,2.13239 -8.74448,3.73646c-2.71271,1.60418 -5.19715,3.52786 -7.45335,5.77098c-2.25624,2.24323 -4.18642,4.73421 -5.79054,7.47291c-1.60416,2.73881 -2.85615,5.66668 -3.75602,8.7836c-0.89989,3.11701 -1.34983,6.35789 -1.34981,9.72261c-0.00002,3.3648 0.4434,6.60567 1.33025,9.72261c0.88683,3.11699 2.1323,6.03834 3.73646,8.76404c1.60411,2.72573 3.52777,5.20365 5.77098,7.43379c2.24314,2.23014 4.73412,4.14728 7.47291,5.75142c2.73872,1.60414 5.66659,2.84961 8.7836,3.73646c3.11692,0.88683 6.3578,1.33025 9.72261,1.33025c3.36471,0 6.6121,-0.44345 9.74217,-1.33025c3.12996,-0.88685 6.05783,-2.12582 8.78363,-3.7169c2.72566,-1.5911 5.20358,-3.50169 7.43379,-5.73183c2.23005,-2.23014 4.14065,-4.71461 5.73183,-7.45337c1.59101,-2.73874 2.82998,-5.66661 3.7169,-8.7836c0.88674,-3.11695 1.33016,-6.35782 1.33025,-9.72261zM379.97284,199.86305v0.15652l-17.91935,18.74098h-12.98956l13.65469,-13.96772h-29.69603v-9.70303h29.69603l-13.65469,-13.96772h12.98956zM400.00495,200.0587c-0.00009,4.04296 -0.53482,7.94242 -1.60414,11.69843c-1.06952,3.75604 -2.58235,7.28381 -4.53852,10.58336c-1.95635,3.29957 -4.29081,6.30568 -7.00341,9.01837c-2.71275,2.71266 -5.71888,5.04715 -9.01837,7.00341c-3.29964,1.95626 -6.83395,3.46909 -10.60294,4.53852c-3.76912,1.06941 -7.67512,1.60411 -11.71799,1.60414c-4.04298,-0.00002 -7.94898,-0.53475 -11.71799,-1.60414c-3.7691,-1.06943 -7.30341,-2.56923 -10.60294,-4.4994c-3.2996,-1.93018 -6.31222,-4.2516 -9.03793,-6.96429c-2.72575,-2.71269 -5.06673,-5.71882 -7.02297,-9.01837c-1.95628,-3.29955 -3.46911,-6.83384 -4.53852,-10.60292c-1.06943,-3.76906 -1.60414,-7.68809 -1.60414,-11.75713c0,-4.04292 0.5347,-7.94889 1.60414,-11.71799c1.06941,-3.76901 2.58224,-7.30333 4.53852,-10.60292c1.95624,-3.29951 4.29722,-6.31216 7.02297,-9.03793c2.7257,-2.72566 5.73833,-5.06666 9.03793,-7.02299c3.29953,-1.95619 6.83384,-3.47555 10.60294,-4.55808c3.76901,-1.08238 7.67501,-1.62363 11.71799,-1.6237c4.04287,0.00007 7.94887,0.53479 11.71799,1.60414c3.76899,1.0695 7.3033,2.57581 10.60294,4.51896c3.29948,1.94329 6.30561,4.27775 9.01837,7.00341c2.7126,2.72577 5.04706,5.73842 7.00341,9.03793c1.95617,3.2996 3.469,6.84045 4.53852,10.6225c1.06932,3.78214 1.60405,7.70768 1.60414,11.77667z" fill="#1a1a1a" stroke="none" stroke-width="2.23"/></g></g></svg>