<svg version="1.1" xmlns="http://www.w3.org/2000/svg" xmlns:xlink="http://www.w3.org/1999/xlink" width="152" height="109.82121" viewBox="0,0,152,109.82121"><g transform="translate(-279.5,-143.17879)"><g data-paper-data="{&quot;isPaintingLayer&quot;:true}" fill-rule="nonzero" stroke-linecap="butt" stroke-linejoin="miter" stroke-dasharray="" stroke-dashoffset="0" style="mix-blend-mode: normal"><path d="M280.5,252v-104h150v104z" fill="#000000" stroke="#000000" stroke-width="2" stroke-miterlimit="10"/><g><path d="M322.00101,191.89076c0,0 0.01339,-0.20768 0.30844,-0.20768c1.77571,0 18.69361,0 18.69361,0c4.5932,-4.80246 11.63979,-6.34015 17.81595,-3.88736c6.17617,2.45278 10.24841,8.40588 10.29532,15.0511c1.56876,10.05929 2.40911,20.21892 2.51445,30.39926c0,6.08484 -2.51438,9.98182 -7.31688,10.96244c-0.90183,0.18486 -1.82033,0.27787 -2.74091,0.27679c-4.44657,0.09382 -8.39939,-2.8165 -9.63003,-7.09042c-0.98062,-2.79098 -2.7405,-6.61343 -3.82169,-8.90153c-5.68393,2.57045 -12.31273,-0.59931 -13.8795,-6.63748h-5.68252c-1.56401,6.05366 -8.21404,9.22781 -13.90466,6.63748c-1.08119,2.31325 -2.84169,6.13569 -3.82231,8.90153c-1.22825,4.26474 -5.16755,7.17272 -9.60487,7.09042c-0.91217,-0.00093 -1.82152,-0.09378 -2.71514,-0.27679c-4.82765,-0.90518 -7.34204,-4.8776 -7.34204,-10.96244c0.10535,-10.18033 0.9451,-20.33996 2.51384,-30.39925c0.0469,-6.64522 4.11915,-12.59832 10.29531,-15.0511c1.93005,-0.7665 3.94473,-1.14328 5.94336,-1.15259c4.39698,-0.02043 8.71476,1.73826 11.8726,5.03995z" fill="none" stroke-opacity="0.14902" stroke="#000000" stroke-width="10" stroke-miterlimit="10"/><path d="M331.39851,195.08262v-24.58658c0,0 0.18913,-7.18685 5.67383,-7.18685c5.4847,0 6.4634,4.52377 6.50798,6.22974c0.04457,1.70597 0.08916,3.41194 0.13373,5.11792c0.04458,1.70597 2.08038,4.25537 5.29556,4.25537c3.21518,0 5.75217,-1.28472 5.67384,-4.63363c-0.07531,-3.21985 -0.18914,-21.0998 -0.18914,-21.0998" fill="none" stroke-opacity="0.14902" stroke="#000000" stroke-width="20" stroke-miterlimit="4"/><path d="M321.79333,191.68308h19.20973c4.5932,-4.80246 11.63979,-6.34015 17.81595,-3.88736c6.17617,2.45278 10.24841,8.40588 10.29532,15.0511c1.56876,10.05929 2.40911,20.21892 2.51445,30.39926c0,6.08484 -2.51438,9.98182 -7.31688,10.96244c-0.90183,0.18486 -1.82033,0.27787 -2.74091,0.27679c-4.44657,0.09382 -8.39939,-2.8165 -9.63003,-7.09042c-0.98062,-2.79098 -2.7405,-6.61343 -3.82169,-8.90153c-5.68393,2.57045 -12.31273,-0.59931 -13.8795,-6.63748h-5.68252c-1.56401,6.05366 -8.21404,9.22781 -13.90466,6.63748c-1.08119,2.31325 -2.84169,6.13569 -3.82231,8.90153c-1.22825,4.26474 -5.16755,7.17272 -9.60487,7.09042c-0.91217,-0.00093 -1.82152,-0.09378 -2.71514,-0.27679c-4.82765,-0.90518 -7.34204,-4.8776 -7.34204,-10.96244c0.10535,-10.18033 0.9451,-20.33996 2.51384,-30.39925c0.0469,-6.64522 4.11915,-12.59832 10.29531,-15.0511c1.93005,-0.7665 3.94473,-1.14328 5.94336,-1.15259c4.39698,-0.02043 8.71476,1.73826 11.8726,5.03995z" fill="#ffffff" stroke="none" stroke-width="9.34454" stroke-miterlimit="10"/><path d="M331.39851,195.08262v-24.58658c0,0 0.18913,-7.18685 5.67383,-7.18685c5.4847,0 6.4634,4.52377 6.50798,6.22974c0.04457,1.70597 0.08916,3.41194 0.13373,5.11792c0.04458,1.70597 2.08038,4.25537 5.29556,4.25537c3.21518,0 5.75217,-1.28472 5.67384,-4.63363c-0.07531,-3.21985 -0.18914,-21.0998 -0.18914,-21.0998" fill="none" stroke="#fdffff" stroke-width="8.5" stroke-miterlimit="4"/><path d="M350.30084,192.60424c0.82662,-0.71639 1.92353,-1.03862 3.00627,-0.88311c1.95803,0.28194 3.36551,2.02879 3.22447,4.00198c-0.14103,1.9732 -1.78264,3.50212 -3.76087,3.5027c-2.08282,-0.00012 -3.77125,-1.68855 -3.77137,-3.77137c-0.00001,-1.09385 0.47487,-2.13382 1.30149,-2.85021zM306.25431,194.19751h7.54335v5.02829h5.0289v7.54335h-5.0289v5.0289h-7.54335v-5.0289h-5.0289v-7.54335h5.0289zM354.02758,195.45505c0.00017,-0.69432 -0.56254,-1.25732 -1.25687,-1.25751c-0.33344,-0.00009 -0.65325,0.13229 -0.88909,0.368c-0.23584,0.23572 -0.36837,0.55547 -0.36844,0.88891c-0.00016,0.69432 0.56257,1.25732 1.2569,1.25748c0.69432,0.00016 1.25732,-0.56256 1.2575,-1.25688zM308.76877,196.71137v5.0289h-5.0289v2.51445h5.0289v5.0289h2.51445v-5.0289h5.0289v-2.51445h-5.0289v-5.0289zM342.75768,200.14732c0.82676,-0.71641 1.92385,-1.03854 3.00669,-0.88285c1.95814,0.28196 3.36564,2.029 3.22443,4.00229c-0.14121,1.97329 -1.78311,3.50212 -3.76144,3.5024c-2.08282,-0.00013 -3.77125,-1.68855 -3.77137,-3.77137c-0.00003,-1.09398 0.47493,-2.13406 1.3017,-2.85048zM357.84377,200.14732c0.82676,-0.71641 1.92385,-1.03854 3.00669,-0.88284c1.95802,0.28194 3.36549,2.0288 3.22445,4.00198c-0.14103,1.97318 -1.78264,3.5021 -3.76085,3.5027c-1.00032,0.0001 -1.9597,-0.39718 -2.66709,-1.10446c-0.70739,-0.70728 -1.10483,-1.66659 -1.1049,-2.66691c-0.00003,-1.09398 0.47493,-2.13407 1.3017,-2.85048zM346.48484,202.99714c-0.00017,-0.69433 -0.56315,-1.25706 -1.25748,-1.2569c-0.33344,0.00007 -0.65319,0.13261 -0.88891,0.36845c-0.23572,0.23583 -0.36809,0.55565 -0.368,0.88909c0.00019,0.69432 0.56319,1.25704 1.25752,1.25687c0.69432,-0.00018 1.25705,-0.56317 1.25688,-1.2575zM360.31407,201.74026c-0.33354,-0.00009 -0.65345,0.13237 -0.88931,0.36823c-0.23585,0.23586 -0.36831,0.55577 -0.36822,0.88931c0.00019,0.69424 0.56306,1.25692 1.25731,1.25687c0.69425,-0.00006 1.25703,-0.56285 1.25709,-1.25709c0.00006,-0.69424 -0.56262,-1.25713 -1.25687,-1.25732zM350.30106,207.69074c0.82659,-0.71625 1.92341,-1.03839 3.00605,-0.88291c1.95802,0.28195 3.36547,2.0288 3.22444,4.00197c-0.14103,1.97318 -1.78262,3.5021 -3.76083,3.5027c-1.00032,-0.00006 -1.95964,-0.3975 -2.66691,-1.10489c-0.70728,-0.70739 -1.10456,-1.66678 -1.10446,-2.6671c0.00017,-1.09374 0.47513,-2.13355 1.30172,-2.84979zM354.02758,210.54112c0.00017,-0.69433 -0.56254,-1.25733 -1.25687,-1.25752c-0.33344,-0.00009 -0.65325,0.13229 -0.88909,0.36801c-0.23584,0.23571 -0.36837,0.55547 -0.36844,0.88891c-0.00016,0.69432 0.56257,1.25732 1.2569,1.25748c0.69432,0.00016 1.25732,-0.56255 1.2575,-1.25688zM314.18022,217.4165c0.77853,-1.8791 2.61235,-3.10419 4.64635,-3.10399c2.77717,0.00028 5.02835,2.25173 5.0283,5.0289c-0.00004,2.034 -1.22535,3.86768 -3.10454,4.64598c-1.8792,0.7783 -4.04219,0.34794 -5.48036,-1.09039c-1.43817,-1.43834 -1.86828,-3.60138 -1.08974,-5.48048zM338.94176,219.34134c-0.00002,-2.7773 2.25139,-5.02877 5.02869,-5.02882c1.33375,-0.00002 2.61289,0.52979 3.55599,1.4729c0.94311,0.94311 1.47293,2.22224 1.4729,3.556c-0.00006,2.7773 -2.25153,5.02871 -5.02883,5.0287c-2.7773,-0.00002 -5.02874,-2.25146 -5.02876,-5.02876zM320.54286,217.50342c-0.50923,-0.47561 -1.19298,-0.71857 -1.88814,-0.67093c-1.355,0.08903 -2.39452,1.23783 -2.34809,2.59496c0.04643,1.35713 1.16202,2.4322 2.51994,2.42842c0.66688,0.00001 1.30645,-0.26489 1.778,-0.73644c0.47155,-0.47155 0.73646,-1.11113 0.73644,-1.77801c0.00011,-0.69679 -0.28892,-1.36238 -0.79816,-1.83799zM345.68675,217.50343c-0.50923,-0.47561 -1.19298,-0.71857 -1.88814,-0.67093c-1.355,0.08902 -2.39452,1.23782 -2.34809,2.59495c0.04643,1.35713 1.16202,2.4322 2.51994,2.42842c0.66688,0.00001 1.30645,-0.2649 1.778,-0.73645c0.47155,-0.47155 0.73645,-1.11112 0.73644,-1.77801c0.00011,-0.69679 -0.28892,-1.36239 -0.79815,-1.83799z" fill="#00b745" stroke="none" stroke-width="9.34454" stroke-miterlimit="10"/><path d="M361.58841,202.99757c-0.00006,0.69424 -0.58031,1.2745 -1.27456,1.27456c-0.69424,0.00006 -1.27459,-0.58009 -1.27478,-1.27433c-0.00009,-0.33354 0.13749,-0.66581 0.37334,-0.90167c0.23585,-0.23585 0.56813,-0.37343 0.90167,-0.37334c0.69424,0.00019 1.27439,0.58054 1.27433,1.27479z" data-paper-data="{&quot;noHover&quot;:false,&quot;origItem&quot;:[&quot;Path&quot;,{&quot;applyMatrix&quot;:true,&quot;segments&quot;:[[[357.74897,136.43652],[1.98674,0.00053],[-0.95452,-0.00025]],[[355.20399,137.49029],[0.67495,-0.67495],[-0.67494,0.67496]],[[354.15023,140.03527],[-0.00025,-0.95452],[0.00054,1.98675]],[[357.74833,143.63209],[-1.98675,0.00017],[1.98676,-0.00018]],[[361.34579,140.03463],[-0.00017,1.98674],[0.00018,-1.98675]]],&quot;closed&quot;:true,&quot;fillColor&quot;:[1,1,1],&quot;strokeWidth&quot;:9.34454}]}" fill="#ffffff" stroke="#ffffff" stroke-width="1.5" stroke-miterlimit="10"/><path d="M354.04505,195.45505c-0.00018,0.69432 -0.58065,1.27452 -1.27497,1.27435c-0.69433,-0.00016 -1.27452,-0.58063 -1.27437,-1.27496c0.00007,-0.33344 0.13772,-0.66554 0.37356,-0.90126c0.23583,-0.23572 0.56801,-0.37321 0.90145,-0.37312c0.69433,0.00019 1.27451,0.58066 1.27433,1.27499z" data-paper-data="{&quot;noHover&quot;:false,&quot;origItem&quot;:[&quot;Path&quot;,{&quot;applyMatrix&quot;:true,&quot;segments&quot;:[[[339.75865,118.44983],[0,0],[0.00049,-1.98698]],[[336.16182,114.85115],[1.98699,0.00054],[-0.95421,-0.00025]],[[333.61748,115.90429],[0.6749,-0.67457],[-0.67491,0.67456]],[[332.56309,118.44812],[0.00021,-0.95421],[-0.00045,1.98698]],[[336.16001,122.04671],[-1.98699,-0.00047],[1.98698,0.00047]],[[339.75864,118.44983],[-0.00051,1.98698],[0,0]]],&quot;closed&quot;:true,&quot;fillColor&quot;:[1,1,1],&quot;strokeWidth&quot;:9.34454}]}" fill="#ffffff" stroke="#ffffff" stroke-width="1.5" stroke-miterlimit="10"/><path d="M346.50232,202.99714c0.00017,0.69433 -0.58002,1.2748 -1.27434,1.27497c-0.69433,0.00018 -1.27481,-0.58001 -1.275,-1.27433c-0.00009,-0.33344 0.1374,-0.66561 0.37312,-0.90145c0.23572,-0.23583 0.56783,-0.37349 0.90126,-0.37357c0.69433,-0.00016 1.27479,0.58004 1.27496,1.27437z" data-paper-data="{&quot;noHover&quot;:false,&quot;origItem&quot;:[&quot;Path&quot;,{&quot;applyMatrix&quot;:true,&quot;segments&quot;:[[[318.17325,140.0334],[0,0],[-0.00048,-1.98699]],[[314.57466,136.43648],[1.98699,-0.00045],[-0.95421,0.00021]],[[312.03083,137.49088],[0.67457,-0.6749],[-0.67457,0.6749]],[[310.9777,140.03523],[-0.00025,-0.95421],[0.00054,1.98698]],[[314.5764,143.63205],[-1.98699,0.00051],[1.98698,-0.00051]],[[318.17326,140.0334],[0.00048,1.98699],[0,0]]],&quot;closed&quot;:true,&quot;fillColor&quot;:[1,1,1],&quot;strokeWidth&quot;:9.34454}]}" fill="#ffffff" stroke="#ffffff" stroke-width="1.5" stroke-miterlimit="10"/><path d="M354.04505,210.54111c-0.00018,0.69433 -0.58065,1.27451 -1.27497,1.27435c-0.69433,-0.00017 -1.27452,-0.58063 -1.27437,-1.27495c0.00007,-0.33344 0.13772,-0.66555 0.37356,-0.90126c0.23583,-0.23572 0.56801,-0.37321 0.90145,-0.37312c0.69433,0.00019 1.27451,0.58067 1.27433,1.275z" data-paper-data="{&quot;noHover&quot;:false,&quot;origItem&quot;:[&quot;Path&quot;,{&quot;applyMatrix&quot;:true,&quot;segments&quot;:[[[339.75865,161.62233],[0,0],[0.00049,-1.98699]],[[336.16182,158.02363],[1.98699,0.00053],[-0.95421,-0.00026]],[[333.61748,159.07678],[0.6749,-0.67456],[-0.67491,0.67455]],[[332.56309,161.6206],[0.00021,-0.95421],[-0.00045,1.98698]],[[336.16001,165.21919],[-1.98699,-0.00048],[1.98698,0.00047]],[[339.75864,161.62231],[-0.00051,1.98699],[0,0]]],&quot;closed&quot;:true,&quot;fillColor&quot;:[1,1,1],&quot;strokeWidth&quot;:9.34454}]}" fill="#ffffff" stroke="#ffffff" stroke-width="1.5" stroke-miterlimit="10"/><path d="M345.69868,217.49066c0.50923,0.4756 0.8038,1.15396 0.80369,1.85075c0.00001,0.66688 -0.27,1.31879 -0.74155,1.79035c-0.47155,0.47155 -1.12346,0.74159 -1.79035,0.74158c-1.35792,0.00378 -2.49099,-1.08817 -2.53742,-2.44529c-0.04643,-1.35713 1.00939,-2.52396 2.36438,-2.61298c0.69516,-0.04764 1.39202,0.2 1.90125,0.67561z" data-paper-data="{&quot;noHover&quot;:false,&quot;origItem&quot;:[&quot;Path&quot;,{&quot;applyMatrix&quot;:true,&quot;segments&quot;:[[[315.88931,181.54666],[0,0],[-1.45728,-1.36107]],[[310.48593,179.62662],[1.98937,-0.13633],[-3.87765,0.25476]],[[303.7663,187.05271],[-0.13287,-3.88375],[0.13287,3.88375]],[[310.97772,194.00223],[-3.88601,0.01083],[1.90844,0.00004]],[[316.06591,191.8947],[-1.34946,1.34946],[1.34946,-1.34947]],[[318.17342,186.8065],[0.00004,1.90845],[0.00032,-1.99402]],[[315.88931,181.54665],[1.45729,1.36106],[0,0]]],&quot;closed&quot;:true,&quot;fillColor&quot;:[1,1,1],&quot;strokeWidth&quot;:9.34454}]}" fill="#ffffff" stroke="none" stroke-width="4.67227" stroke-miterlimit="10"/><path d="M320.5548,217.49067c0.50923,0.4756 0.8038,1.15396 0.80369,1.85074c0.00002,0.66688 -0.27,1.3188 -0.74155,1.79035c-0.47155,0.47155 -1.12346,0.74159 -1.79035,0.74157c-1.35792,0.00378 -2.49099,-1.08817 -2.53742,-2.44529c-0.04643,-1.35713 1.00938,-2.52396 2.36438,-2.61299c0.69516,-0.04764 1.39202,0.2 1.90125,0.67561z" data-paper-data="{&quot;noHover&quot;:false,&quot;origItem&quot;:[&quot;Path&quot;,{&quot;applyMatrix&quot;:true,&quot;segments&quot;:[[[243.93392,181.54665],[0,0],[-1.45728,-1.36107]],[[238.53054,179.62661],[1.98936,-0.13632],[-3.87766,0.25477]],[[231.81091,187.05271],[-0.13287,-3.88375],[0.13287,3.88375]],[[239.02232,194.00223],[-3.88601,0.01083],[1.90844,0.00004]],[[244.11051,191.89471],[-1.34946,1.34946],[1.34945,-1.34947]],[[246.21802,186.8065],[0.00005,1.90845],[0.00032,-1.99402]],[[243.93391,181.54666],[1.45729,1.36106],[0,0]]],&quot;closed&quot;:true,&quot;fillColor&quot;:[1,1,1],&quot;strokeWidth&quot;:9.34454}]}" fill="#ffffff" stroke="none" stroke-width="4.67227" stroke-miterlimit="10"/><path d="M311.28664,196.69424l0.00893,5.03367l5.03368,0.00893v2.52131l-5.03368,0.00893l-0.00893,5.03368h-2.5213l-0.00893,-5.03368l-5.03368,-0.00893v-2.52131l5.03368,-0.00893l0.00893,-5.03367z" data-paper-data="{&quot;noHover&quot;:false,&quot;origItem&quot;:[&quot;Path&quot;,{&quot;applyMatrix&quot;:true,&quot;segments&quot;:[[210.23947,122.04511],[210.23947,136.43653],[195.84803,136.43653],[195.84803,143.63225],[210.23947,143.63225],[210.23947,158.02368],[217.43518,158.02368],[217.43518,143.63225],[231.82661,143.63225],[231.82661,136.43653],[217.43518,136.43653],[217.43518,122.04511]],&quot;closed&quot;:true,&quot;fillColor&quot;:[1,1,1],&quot;strokeWidth&quot;:9.34454}]}" fill="#ffffff" stroke="none" stroke-width="4.67227" stroke-miterlimit="10"/><path d="M334.42698,198.80717c0,0.65223 -0.52868,1.18097 -1.18091,1.18097h-3.69517c-0.65224,0 -1.18097,-0.52874 -1.18097,-1.18097v0c0,-0.65218 0.52874,-1.18092 1.18097,-1.18092h3.69517c0.65224,0 1.18091,0.52874 1.18091,1.18092z" fill="#00b745" stroke="#00b745" stroke-width="1" stroke-miterlimit="10"/></g><text transform="translate(400.68824,224.90524) scale(0.5,0.5)" font-size="40" xml:space="preserve" fill="#00b745" fill-rule="nonzero" stroke="none" stroke-width="1" stroke-linecap="butt" stroke-linejoin="miter" stroke-miterlimit="10" stroke-dasharray="" stroke-dashoffset="0" font-family="Sans Serif" font-weight="normal" text-anchor="start" style="mix-blend-mode: normal"><tspan x="0" dy="0">4</tspan></text><g stroke-width="1" stroke-miterlimit="10"><path d="M421.08574,177.15326c1.77247,1.83555 1.7219,4.77107 -0.11365,6.54353c-0.86695,0.83775 -2.00914,1.29911 -3.21442,1.29911v0c-1.26679,0 -2.44809,-0.5015 -3.32807,-1.41276l-7.57156,-7.83952l-7.68573,7.72744c-0.87424,0.87946 -2.04042,1.36428 -3.28063,1.36428c-1.23134,0 -2.39022,-0.47857 -3.2629,-1.34655c-1.80896,-1.79958 -1.81678,-4.73457 -0.0172,-6.54353l7.81606,-7.85933l-7.70033,-7.97298c-1.77247,-1.83503 -1.72138,-4.77054 0.11365,-6.54301c0.86747,-0.83723 2.00862,-1.29859 3.2139,-1.29859c1.26679,0 2.44913,0.5015 3.32911,1.41276l7.57104,7.83848l7.68573,-7.72692c0.87476,-0.87998 2.04042,-1.36428 3.28115,-1.36428c1.23082,0 2.3897,0.47752 3.26186,1.34603c1.80948,1.79905 1.8173,4.7351 0.01825,6.54406l-7.81658,7.85933z" fill="#be2026" stroke="#be2026"/><path d="M420.39865,177.81794c1.40911,1.45864 1.36897,3.78265 -0.08967,5.19281c-1.45864,1.40807 -3.7837,1.36793 -5.19281,-0.09071l-8.24823,-8.54017l-8.3723,8.41818c-1.42996,1.43778 -3.7545,1.44404 -5.19333,0.01355c-1.43726,-1.42996 -1.44404,-3.7545 -0.01355,-5.19333l8.47604,-8.52296l-8.35093,-8.64599c-1.40859,-1.45864 -1.36845,-3.78318 0.09071,-5.19281c1.45812,-1.40859 3.78318,-1.36793 5.19229,0.09071l8.24771,8.53965l8.37282,-8.41766c1.43049,-1.43778 3.75555,-1.44456 5.19333,-0.0146c1.43831,1.43049 1.44404,3.75555 0.01408,5.19385l-8.47709,8.52244z" fill="#dd2726" stroke="#bc192d"/></g></g></g></svg>