<svg version="1.1" xmlns="http://www.w3.org/2000/svg" xmlns:xlink="http://www.w3.org/1999/xlink" width="100" height="100" viewBox="0,0,100,100"><g transform="translate(-305.50002,-150.00006)"><g data-paper-data="{&quot;isPaintingLayer&quot;:true}" fill-rule="nonzero" stroke-linecap="butt" stroke-linejoin="miter" stroke-miterlimit="10" stroke-dasharray="" stroke-dashoffset="0" style="mix-blend-mode: normal"><path d="" fill="#e682ff" stroke="#000000" stroke-width="0"/><path d="" fill="#e682ff" stroke="#000000" stroke-width="0"/><path d="" fill="#9375ff" stroke="#000000" stroke-width="0"/><path d="" fill="#9375ff" stroke="#000000" stroke-width="0"/><path d="" fill="#9375ff" stroke="#000000" stroke-width="0"/><path d="" fill="#9375ff" stroke="#000000" stroke-width="0"/><path d="" fill="#9375ff" stroke="#000000" stroke-width="0"/><path d="M305.50002,200.00007c0,-27.61424 22.38576,-50 50,-50c27.61424,0 50,22.38576 50,50c0,27.61424 -22.38576,50 -50,50c-27.61424,0 -50,-22.38576 -50,-50z" fill="#ccbc68" stroke="none" stroke-width="0"/><path d="M357.86953,164.71208c6.12887,0.15323 12.12642,1.90176 17.34462,5.05528c2.35001,1.42019 3.10405,4.47226 1.68388,6.82158c-1.41877,2.34866 -4.47219,3.10152 -6.82085,1.68251c-3.74393,-2.26345 -8.05185,-3.51646 -12.45621,-3.62658c-13.98155,-0.34956 -25.63962,10.74069 -25.9892,24.72294c-0.34952,13.98017 10.73842,25.6384 24.72135,25.988c5.10681,0.12768 10.06527,-1.31946 14.29203,-4.02441l-3.87107,-1.84245c-2.13887,-1.01729 -1.77791,-3.28225 0.80473,-5.06171l15.12929,-10.41465c2.58305,-1.77761 4.87773,-0.68392 5.12538,2.44208l1.4563,18.30705c0.24698,3.12575 -1.57262,4.69708 -4.06589,3.5116c-2.4932,-1.18824 -4.51437,-2.14809 -4.51437,-2.14809c-6.69422,6.07502 -15.49506,9.39066 -24.60473,9.1629c-19.4576,-0.48647 -34.89229,-16.71107 -34.40582,-36.1689c0.48649,-19.45852 16.71272,-34.89363 36.17054,-34.40716z" fill="#000000" stroke="none" stroke-width="1"/></g></g></svg>