<svg version="1.1" xmlns="http://www.w3.org/2000/svg" xmlns:xlink="http://www.w3.org/1999/xlink" width="14.31165" height="13.75609" viewBox="0,0,14.31165,13.75609"><g transform="translate(-348.34418,-193.12196)"><g data-paper-data="{&quot;isPaintingLayer&quot;:true}" fill-rule="nonzero" stroke="none" stroke-linecap="butt" stroke-linejoin="miter" stroke-miterlimit="10" stroke-dasharray="" stroke-dashoffset="0" style="mix-blend-mode: normal"><g><path d="M361.93513,200.58853c0,3.15355 -2.88115,5.71077 -6.43582,5.71077c-3.55468,0 -6.43559,-2.55614 -6.43559,-5.71077c0,-3.15355 2.88069,-4.61842 6.43559,-4.61842c3.55445,-0.00022 6.43582,1.46509 6.43582,4.61842z" fill="#ec1c2c" stroke-width="1"/><g><path d="M362.65582,200.52753c0,3.50717 -3.20365,6.35051 -7.15605,6.35051c-3.95171,0 -7.15559,-2.84334 -7.15559,-6.35051c0,-3.09081 2.48917,-4.48231 5.78507,-4.76972c0,0 1.04158,-0.12591 2.10157,-0.04103c3.60782,0.15847 6.42501,1.52326 6.42501,4.81075zM361.56409,200.62066c0,-2.73567 -2.30193,-4.12108 -5.279,-4.32427c0,0 -1.88787,0.02496 -1.94515,0.03126c-2.79373,0.29111 -4.90289,1.6737 -4.90289,4.29258c0,2.97098 2.71391,5.38037 6.06294,5.38037c3.3488,0 6.06271,-2.40896 6.06409,-5.37994z" fill="#231f20" stroke-width="1"/><path d="M361.61389,200.61633c-0.00138,2.97098 -2.76511,5.43428 -6.11391,5.43428c-3.34903,0 -6.11275,-2.46373 -6.11275,-5.43471c0,-2.61888 2.14727,-4.04574 4.941,-4.33685c0.05728,-0.0063 1.96483,-0.03201 1.96483,-0.03201c2.97707,0.20319 5.32083,1.63362 5.32083,4.36929z" data-paper-data="{&quot;noHover&quot;:false,&quot;origItem&quot;:[&quot;Path&quot;,{&quot;applyMatrix&quot;:true,&quot;segments&quot;:[[[361.56409,200.62066],[0,0],[0,-2.73567]],[[356.28509,196.29639],[2.97707,0.20319],[0,0]],[[354.33994,196.32765],[0.05728,-0.0063],[-2.79373,0.29111]],[[349.43705,200.62023],[0,-2.61888],[0,2.97098]],[[355.49999,206.0006],[-3.34903,0],[3.3488,0]],[[361.56408,200.62066],[-0.00138,2.97098],[0,0]]],&quot;closed&quot;:true,&quot;fillColor&quot;:[0.13725,0.12157,0.12549]}]}" fill="#940000" stroke-width="0.5"/><path d="M357.55924,197.69331c-0.82075,0.03929 -1.607,0.05883 -2.42936,0.14588c-0.54909,0.05818 -1.07816,0.06274 -1.48485,-0.32866c-0.08833,-0.08575 0.02714,-0.23358 0.13756,-0.1678c0.2719,0.16086 0.54587,0.22598 0.82144,0.23857c0.01794,0.01389 0.98316,-0.10637 1.4239,-0.23836c0.53183,-0.13676 1.06413,-0.24964 1.59389,-0.08444c0.25326,0.07902 0.20427,0.42157 -0.06257,0.43481z" fill="#231f20" stroke-width="1"/></g><path d="M351.23222,200.55792c0,0.74481 0.42556,1.34851 -0.01932,1.34851c-0.44488,0 -0.80511,-0.6037 -0.80511,-1.34851c0,-0.74459 0.36023,-1.3483 0.80511,-1.3483c0.44488,0 0.01932,0.60392 0.01932,1.3483z" fill="#ffffff" stroke-width="1"/></g><g stroke-width="1"><path d="M353.89162,194.13773c0.23486,-0.13242 0.46903,-0.26527 0.70367,-0.39791c0.16884,0.24487 0.33861,0.48388 0.47479,0.75588c0.49733,0.99076 0.38783,2.03731 0.37357,3.08517c-0.08626,0.01932 -0.22474,0.03321 -0.31008,0.04754c0.05935,-1.33462 -0.27719,-2.55809 -1.24194,-3.49068z" fill="#99661d"/><path d="M356.00354,197.12304c0,0 -0.05291,0.40725 -0.05774,0.48409c0,0 -0.86745,0.244 -1.20767,0.122l-0.01058,-0.34928c0.0069,-0.69792 -0.22313,-1.4475 -0.35931,-1.68217c-0.0651,-0.11201 -0.32733,-0.75241 -1.12715,-1.42341c-0.1371,-0.1144 -0.09086,-0.32888 0.05567,-0.41202c0.41567,-0.23532 0.83018,-0.47063 1.24539,-0.70595c0.13342,-0.07533 0.29099,-0.0191 0.38139,0.09443c1.27161,1.59729 1.11887,3.70711 1.08,3.87231zM355.42018,197.27803c0.02576,-0.96428 0.11272,-1.86039 -0.35011,-2.78234c-0.13618,-0.272 -0.30594,-0.51101 -0.47479,-0.75588c-0.23463,0.13264 -0.4688,0.26549 -0.70367,0.39791c0.91139,0.88092 1.28358,1.94701 1.27207,3.18741v0.25008l0.25511,-0.03061z" fill="#231f20"/></g></g></g></svg>